<svg width="210" height="210" viewBox="0 0 210 210" fill="none" xmlns="http://www.w3.org/2000/svg">
<path d="M0 56.6421C0 53.99 1.05357 51.4464 2.92893 49.5711L49.5711 2.92894C51.4464 1.05357 53.99 0 56.6421 0H105H200C205.523 0 210 4.47715 210 10V105V153.289C210 155.982 208.914 158.561 206.987 160.443L159.164 207.154C157.296 208.978 154.788 210 152.177 210H102.5H10C4.47716 210 0 205.523 0 200V105V56.6421Z" fill="#0C6FFF"/>
<path d="M63 165.647H91.0515L63 193.698V165.647Z" fill="white"/>
<rect x="63" y="131.985" width="28.0515" height="28.0515" fill="white"/>
<rect x="63" y="98.3235" width="28.0515" height="28.0515" fill="white"/>
<rect x="63" y="64.6615" width="28.0515" height="28.0515" fill="white"/>
<path d="M63 59.0515L91.0515 31V59.0515H63Z" fill="white"/>
<rect x="96.6621" y="31" width="28.0515" height="28.0515" fill="white"/>
<path d="M130.323 31L158.375 59.0515H130.323V31Z" fill="white"/>
<rect x="130.323" y="67.4669" width="28.0515" height="28.0515" fill="white"/>
<path d="M130.323 98.3235H158.375L130.323 126.375V98.3235Z" fill="white"/>
<rect x="96.6621" y="98.3235" width="28.0515" height="28.0515" fill="white"/>
</svg>
